<svg width="81" height="82" viewBox="0 0 81 82" fill="none" xmlns="http://www.w3.org/2000/svg">
<ellipse cx="40.5" cy="40.7349" rx="40.5" ry="40.6627" fill="#D13834" fill-opacity="0.1"/>
<g clip-path="url(#clip0)">
<path d="M45.8953 32.4486C44.0734 32.8995 42.166 32.8995 40.3441 32.4486C30.8546 30.1018 22.909 31.0017 23.0008 48.8965C23.0475 58.0631 31.6319 69.9488 40.6538 67.9152C42.2719 67.5509 43.9667 67.5509 45.5847 67.9152C54.6067 69.9488 63.191 58.0631 63.2378 48.8965C63.3295 31.0026 55.3848 30.1018 45.8953 32.4486Z" fill="#D13834"/>
<path d="M27.4125 44.3244C26.9246 44.3244 26.5303 43.9292 26.5303 43.4422C26.5303 38.5774 30.0919 34.6196 34.4706 34.6196C34.9584 34.6196 35.3528 35.0149 35.3528 35.5019C35.3528 35.9889 34.9584 36.3841 34.4706 36.3841C31.0659 36.3841 28.2948 39.5505 28.2948 43.4422C28.2948 43.9292 27.8995 44.3244 27.4125 44.3244Z" fill="#F75B57"/>
<path d="M43.056 35.7887C42.5822 35.7887 42.1905 35.412 42.1755 34.9347C42.0564 31.201 40.6219 26.5136 36.9508 24.5559C36.5211 24.3265 36.3579 23.7927 36.5873 23.3622C36.8176 22.9325 37.3496 22.7693 37.7819 22.9987C42.1173 25.3102 43.805 30.6505 43.9391 34.8782C43.955 35.3652 43.573 35.7728 43.0851 35.7878C43.0745 35.7887 43.0657 35.7887 43.056 35.7887Z" fill="#4C312C"/>
<path d="M42.9777 38.9587C41.4955 38.9587 40.1007 38.3808 39.0517 37.3309C38.7067 36.9869 38.7067 36.4284 39.0517 36.0834C39.3967 35.7385 39.9542 35.7385 40.2992 36.0834C41.0156 36.7998 41.9675 37.1942 42.9777 37.1942C43.9879 37.1942 44.9399 36.7998 45.6554 36.0834C46.0003 35.7385 46.5579 35.7385 46.9029 36.0834C47.2478 36.4275 47.2478 36.986 46.9029 37.3309C45.8539 38.3808 44.4599 38.9587 42.9777 38.9587Z" fill="#994530"/>
<path d="M42.209 29.6491L42.7463 26.0442C43.3136 22.2373 46.3026 19.2482 50.1096 18.6809L53.7136 18.1445L53.1763 21.7494C52.609 25.5564 49.6199 28.5454 45.813 29.1127L42.209 29.6491Z" fill="#659C35"/>
</g>
<defs>
<clipPath id="clip0">
<rect width="50.2385" height="50.0004" fill="white" transform="translate(18 18.1445)"/>
</clipPath>
</defs>
</svg>
