<svg width="81" height="82" viewBox="0 0 81 82" fill="none" xmlns="http://www.w3.org/2000/svg">
<ellipse cx="40.5" cy="40.7349" rx="40.5" ry="40.6627" fill="#EEAF4B" fill-opacity="0.1"/>
<g clip-path="url(#clip0)">
<path d="M25.9409 65.337C17.1598 61.3324 28.7223 50.4645 31.9919 46.0981C36.5252 40.0453 42.1248 34.4799 48.2798 30.0795C51.4346 27.824 56.9569 22.5216 61.0522 22.4489C65.2193 22.3744 65.3594 27.1302 64.1046 29.5176C60.984 35.4528 56.8654 40.9159 52.2621 45.7625C50.503 47.6167 28.8937 68.2898 25.9409 65.337Z" fill="#FBD490"/>
<path d="M28.8262 49.9115C30.0845 48.4109 31.2512 47.0871 31.9917 46.098C36.5259 40.0452 42.1245 34.4798 48.2796 30.0794C48.9285 29.6153 49.6815 29.0194 50.4982 28.3696C51.4675 26.9031 52.3749 25.398 53.1889 23.848C54.2013 21.9219 54.0882 18.0851 50.7262 18.1452C47.4225 18.2045 42.9681 22.482 40.4228 24.3012C35.4578 27.8508 30.9407 32.3402 27.2833 37.2235C24.6474 40.7453 15.3205 49.5121 22.4036 52.7431C23.2132 53.5527 25.7612 52.1589 28.8262 49.9115Z" fill="#EEAF4B"/>
<path d="M66.4027 33.5474C65.5931 32.7379 63.046 34.1317 59.9801 36.3791C59.8608 36.5218 59.7477 36.6537 59.631 36.7928C57.3989 39.9673 54.9155 42.9712 52.2634 45.7634C52.1306 45.9034 51.8721 46.1619 51.5301 46.4975C49.0099 49.2017 46.2833 51.7291 43.4104 54.0186C41.5795 55.6386 39.6292 57.3116 37.7095 58.8714C36.969 60.0382 36.2582 61.2229 35.6165 62.4426C34.6041 64.3686 34.7172 68.2055 38.0792 68.1454C41.3829 68.0861 45.8373 63.8086 48.3817 61.9894C53.3467 58.4397 57.8638 53.9504 61.5212 49.0671C64.1589 45.5453 73.4858 36.7784 66.4027 33.5474Z" fill="#EEAF4B"/>
<path d="M32.7167 58.7322C31.7411 58.7322 30.7655 58.3606 30.0224 57.6184C29.2371 56.8331 27.9572 56.8331 27.1719 57.6184C26.821 57.9693 26.2538 57.9693 25.9028 57.6184C25.5519 57.2675 25.5519 56.7002 25.9028 56.3493C27.3873 54.8631 29.807 54.8631 31.2915 56.3493C32.0768 57.1346 33.3566 57.1346 34.1419 56.3493C34.4929 55.9984 35.0601 55.9984 35.411 56.3493C35.7619 56.7002 35.7619 57.2684 35.411 57.6184C34.667 58.3606 33.6923 58.7322 32.7167 58.7322Z" fill="#F1B501"/>
<path d="M38.209 53.2396C37.2334 53.2396 36.2569 52.8689 35.5147 52.1258C34.7518 51.362 33.4271 51.3638 32.6651 52.1258C32.3142 52.4767 31.7469 52.4767 31.396 52.1258C31.0451 51.7758 31.0451 51.2077 31.396 50.8567C32.1158 50.136 33.0716 49.7402 34.0903 49.7402C35.1081 49.7402 36.0639 50.136 36.7837 50.8567C37.569 51.642 38.8489 51.642 39.6342 50.8567C39.9851 50.5058 40.5524 50.5058 40.9033 50.8567C41.2542 51.2077 41.2542 51.7749 40.9033 52.1258C40.161 52.8689 39.1846 53.2396 38.209 53.2396Z" fill="#F1B501"/>
<path d="M43.7011 47.7468C42.7255 47.7468 41.749 47.3762 41.0068 46.633C40.2214 45.8477 38.9416 45.8477 38.1563 46.633C37.8054 46.984 37.2381 46.984 36.8872 46.633C36.5363 46.2821 36.5363 45.7149 36.8872 45.364C38.3717 43.8777 40.7914 43.8777 42.2758 45.364C43.0612 46.1493 44.341 46.1493 45.1263 45.364C45.4772 45.013 46.0445 45.013 46.3954 45.364C46.7463 45.7149 46.7463 46.2821 46.3954 46.633C45.6531 47.3762 44.6767 47.7468 43.7011 47.7468Z" fill="#F1B501"/>
<path d="M49.1933 42.2542C48.2177 42.2542 47.2412 41.8835 46.499 41.1404C45.7136 40.355 44.4338 40.355 43.6485 41.1404C43.2976 41.4913 42.7303 41.4913 42.3794 41.1404C42.0285 40.7894 42.0285 40.2222 42.3794 39.8713C43.8639 38.385 46.2836 38.385 47.768 39.8713C48.5533 40.6566 49.8332 40.6566 50.6185 39.8713C50.9694 39.5204 51.5366 39.5204 51.8876 39.8713C52.2385 40.2222 52.2385 40.7894 51.8876 41.1404C51.1453 41.8835 50.1689 42.2542 49.1933 42.2542Z" fill="#F1B501"/>
<path d="M54.6864 36.7649C53.6687 36.7649 52.7128 36.3691 51.9921 35.6484C51.2068 34.8631 49.927 34.8631 49.1416 35.6484C48.7907 35.9993 48.2235 35.9993 47.8726 35.6484C47.5216 35.2975 47.5216 34.7303 47.8726 34.3793C49.357 32.8931 51.7767 32.8931 53.2612 34.3793C54.0223 35.1413 55.3461 35.1422 56.1108 34.3793C56.4617 34.0284 57.0289 34.0284 57.3798 34.3793C57.7308 34.7294 57.7308 35.2975 57.3798 35.6484C56.66 36.3691 55.7042 36.7649 54.6864 36.7649Z" fill="#F1B501"/>
<path d="M45.6403 29.2098C44.7526 29.2098 43.8641 28.8715 43.1892 28.1956C42.5367 27.5432 41.4767 27.5432 40.8243 28.1956C40.4733 28.5466 39.9061 28.5466 39.5552 28.1956C39.2043 27.8447 39.2043 27.2775 39.5552 26.9266C40.9068 25.5749 43.1066 25.5749 44.4583 26.9266C45.1107 27.5791 46.1707 27.5791 46.8232 26.9266C47.1741 26.5756 47.7413 26.5756 48.0923 26.9266C48.4432 27.2775 48.4432 27.8447 48.0923 28.1956C47.4164 28.8715 46.5279 29.2098 45.6403 29.2098Z" fill="#FBD490"/>
<path d="M37.8727 35.6708C36.9851 35.6708 36.0965 35.3334 35.4216 34.6576C34.7682 34.0042 33.7083 34.006 33.0567 34.6576C32.7058 35.0085 32.1385 35.0085 31.7876 34.6576C31.4367 34.3066 31.4367 33.7394 31.7876 33.3885C33.1393 32.0368 35.339 32.0368 36.6907 33.3885C37.3432 34.0392 38.4031 34.0392 39.0556 33.3885C39.4065 33.0376 39.9738 33.0376 40.3247 33.3885C40.6756 33.7394 40.6756 34.3075 40.3247 34.6576C39.648 35.3334 38.7603 35.6708 37.8727 35.6708Z" fill="#FBD490"/>
<path d="M31.0749 43.4389C30.1873 43.4389 29.2997 43.1014 28.6238 42.4256C27.992 41.7938 26.8934 41.792 26.2598 42.4256C25.9089 42.7765 25.3417 42.7765 24.9907 42.4256C24.6398 42.0756 24.6398 41.5075 24.9907 41.1565C26.3011 39.8453 28.5843 39.8453 29.8929 41.1565C30.5463 41.8099 31.6062 41.8081 32.2578 41.1565C32.6088 40.8056 33.176 40.8056 33.5269 41.1565C33.8778 41.5075 33.8778 42.0747 33.5269 42.4256C32.8511 43.1014 31.9634 43.4389 31.0749 43.4389Z" fill="#FBD490"/>
<path d="M62.1364 45.7086C61.2101 45.7086 60.3396 45.3478 59.6853 44.6917C59.0525 44.059 57.9531 44.059 57.3204 44.6917C56.9694 45.0426 56.4022 45.0426 56.0513 44.6917C55.7004 44.3417 55.7004 43.7736 56.0513 43.4226C57.3598 42.1114 59.6422 42.1114 60.9543 43.4226C61.5871 44.0554 62.6865 44.0554 63.3193 43.4226C63.6702 43.0717 64.2374 43.0717 64.5883 43.4226C64.9393 43.7736 64.9393 44.3408 64.5883 44.6917C63.9323 45.3478 63.0617 45.7086 62.1364 45.7086Z" fill="#FBD490"/>
<path d="M54.3688 52.1698C53.4426 52.1698 52.572 51.809 51.9177 51.1529C51.2652 50.4995 50.2053 50.5013 49.5528 51.1529C49.2018 51.5038 48.6346 51.5038 48.2837 51.1529C47.9328 50.802 47.9328 50.2348 48.2837 49.8838C49.6353 48.5322 51.8333 48.5322 53.1868 49.8838C53.8195 50.5166 54.919 50.5166 55.5517 49.8838C55.9026 49.5329 56.4698 49.5329 56.8208 49.8838C57.1717 50.2348 57.1717 50.802 56.8208 51.1529C56.1647 51.809 55.2941 52.1698 54.3688 52.1698Z" fill="#FBD490"/>
<path d="M47.5719 59.9349C46.6843 59.9349 45.7957 59.5966 45.1208 58.9207C44.4683 58.2701 43.4084 58.2701 42.7559 58.9207C42.405 59.2717 41.8378 59.2717 41.4868 58.9207C41.1359 58.5698 41.1359 58.0017 41.4868 57.6517C42.8385 56.3 45.0383 56.3 46.3899 57.6517C47.0433 58.3042 48.1032 58.3042 48.7548 57.6517C49.1057 57.3007 49.673 57.3007 50.0239 57.6517C50.3748 58.0026 50.3748 58.5698 50.0239 58.9207C49.3481 59.5966 48.4604 59.9349 47.5719 59.9349Z" fill="#FBD490"/>
<path d="M59.1483 31.1304C58.2606 31.1304 57.4251 30.7839 56.7977 30.1557C56.2009 29.5579 55.2289 29.5597 54.6338 30.1557C54.2829 30.5066 53.7157 30.5066 53.3648 30.1557C53.0138 29.8048 53.0138 29.2366 53.3648 28.8866C54.6634 27.5906 56.7717 27.5924 58.0668 28.8866C58.6457 29.4655 59.6518 29.4655 60.2298 28.8866C60.5807 28.5357 61.1479 28.5357 61.4988 28.8866C61.8498 29.2366 61.8498 29.8048 61.4988 30.1557C60.8715 30.7839 60.0359 31.1304 59.1483 31.1304Z" fill="#F1B501"/>
</g>
<defs>
<clipPath id="clip0">
<rect width="49.2069" height="50.0014" fill="white" transform="translate(19.7998 18.1445)"/>
</clipPath>
</defs>
</svg>
