<svg width="82" height="82" viewBox="0 0 82 82" fill="none" xmlns="http://www.w3.org/2000/svg">
<ellipse cx="40.9004" cy="40.7349" rx="40.5" ry="40.6627" fill="#A46F3E" fill-opacity="0.1"/>
<g clip-path="url(#clip0)">
<path d="M53.2489 58.6242C53.6497 58.0776 53.8379 57.3657 53.6887 56.6149C53.4489 55.4089 52.3158 54.5852 51.0853 54.5852H36.0548C34.8252 54.5852 33.6913 55.4089 33.4523 56.6149C33.3031 57.3657 33.4913 58.0767 33.8921 58.6242C34.3506 59.2505 34.3506 60.0894 33.8921 60.7157C33.4913 61.2623 33.304 61.9733 33.4523 62.7242C33.6913 63.931 34.8243 64.7547 36.054 64.7547H51.0853C52.315 64.7547 53.4489 63.931 53.6879 62.725C53.837 61.9742 53.6489 61.2632 53.248 60.7166C52.7904 60.0894 52.7904 59.2505 53.2489 58.6242Z" fill="#A46F3E"/>
<path d="M51.197 64.7546H35.9428C34.7351 64.7546 33.7207 63.8995 33.4656 62.7656C33.4317 62.886 33.4004 63.0072 33.4004 63.1309V68.1444H53.7394V63.1309C53.7394 63.0072 53.708 62.886 53.6741 62.7656C53.419 63.8995 52.4046 64.7546 51.197 64.7546Z" fill="#6A3311"/>
<path d="M53.7394 31.7038C53.7394 31.0725 53.286 30.4759 52.4936 29.9377C51.5597 31.0157 50.1843 31.7038 48.6546 31.7038H38.4851C36.9555 31.7038 35.5801 31.0157 34.6462 29.9377C33.8538 30.4759 33.4004 31.0725 33.4004 31.7038V32.8691C33.4004 34.2759 33.7258 35.6581 34.2919 36.9454C36.519 42.0055 36.4809 46.0911 34.3046 51.0208C33.7317 52.3183 33.4004 53.7089 33.4004 55.1276V55.4327C33.4004 55.6708 33.4843 55.9021 33.6072 56.1293C33.997 55.2233 34.8987 54.5852 35.9428 54.5852H51.197C52.2411 54.5852 53.1428 55.2233 53.5326 56.1293C53.6555 55.9021 53.7394 55.6708 53.7394 55.4327V55.1335C53.7394 53.7115 53.4055 52.3174 52.83 51.0166C50.6563 46.103 50.6207 42.0191 52.8512 36.9411C53.4156 35.6564 53.7385 34.2776 53.7385 32.8742V31.7038H53.7394Z" fill="#6A3311"/>
<path d="M46.1121 22.3818H41.0273V18.1445H46.1121V22.3818ZM42.7223 20.6869H44.4172V19.8394H42.7223V20.6869Z" fill="#6A3311"/>
<path d="M48.6546 31.7039H38.4851C35.6885 31.7039 33.4004 29.4158 33.4004 26.6192C33.4004 23.8226 35.6885 21.5344 38.4851 21.5344H48.6546C51.4512 21.5344 53.7394 23.8226 53.7394 26.6192C53.7394 29.4158 51.4512 31.7039 48.6546 31.7039Z" fill="#A46F3E"/>
<path d="M53.1237 60.4708C52.861 59.9623 52.861 59.3776 53.1237 58.8691C53.0483 58.8471 52.9745 58.8225 52.8923 58.8225H44.4178C43.95 58.8225 43.5703 59.2013 43.5703 59.67C43.5703 60.1386 43.95 60.5174 44.4178 60.5174H52.8923C52.9745 60.5174 53.0483 60.492 53.1237 60.4708Z" fill="#6A3311"/>
<path d="M34.248 60.5174H37.6378C38.1056 60.5174 38.4852 60.1386 38.4852 59.67C38.4852 59.2013 38.1056 58.8225 37.6378 58.8225H34.248C34.1658 58.8225 34.092 58.8471 34.0166 58.8691C34.2793 59.3767 34.2793 59.9623 34.0166 60.4708C34.092 60.492 34.1658 60.5174 34.248 60.5174Z" fill="#6A3311"/>
<path d="M41.8746 47.8054H40.1797V38.4834H44.417C46.2865 38.4834 47.8068 40.0037 47.8068 41.8732C47.8068 43.7427 46.2865 45.2631 44.417 45.2631H41.8746V47.8054ZM41.8746 43.5681H44.417C45.3517 43.5681 46.1119 42.808 46.1119 41.8732C46.1119 40.9385 45.3517 40.1783 44.417 40.1783H41.8746V43.5681Z" fill="#A46F3E"/>
</g>
<defs>
<clipPath id="clip0">
<rect width="50.3392" height="50" fill="white" transform="translate(18.4004 18.1445)"/>
</clipPath>
</defs>
</svg>
