<svg width="81" height="82" viewBox="0 0 81 82" fill="none" xmlns="http://www.w3.org/2000/svg">
<ellipse cx="40.5" cy="40.7349" rx="40.5" ry="40.6627" fill="#88C057" fill-opacity="0.1"/>
<g clip-path="url(#clip0)">
<path d="M55.9251 42.5284C57.3207 42.8596 58.8458 42.8524 60.4726 42.1658C63.2691 40.9862 65.2577 38.304 65.3197 35.269C65.3899 31.8696 63.2331 28.9705 60.2117 27.9106C59.9993 24.8243 57.4349 22.3859 54.2956 22.3859C54.2866 22.3859 54.2776 22.3868 54.2686 22.3868C54.3244 21.9198 54.2929 21.4258 54.1417 20.9103C53.717 19.4616 52.4439 18.3504 50.9448 18.1722C49.7157 18.0265 48.5874 18.4665 47.7965 19.2484C47.0461 18.5708 46.0599 18.1461 44.9667 18.1461C42.6245 18.1461 40.726 20.0447 40.726 22.3868C40.726 22.394 40.7278 22.4012 40.7278 22.4084C37.8809 22.6243 35.6368 24.998 35.6368 27.8998C35.6368 28.3434 35.6944 28.7726 35.7934 29.1856C32.4048 29.3268 29.6992 32.1099 29.6992 35.5326C29.6992 36.6924 30.0141 37.7758 30.5567 38.7125C29.5156 39.5681 28.8516 40.8656 28.8516 42.3179C28.8516 44.3487 30.1517 46.0718 31.9639 46.7124C31.73 55.0057 34.6893 59.8987 40.4147 66.4896C40.5172 66.6075 40.6207 66.7263 40.7251 66.8442C40.7476 66.8693 40.7701 66.8945 40.7926 66.9197C43.1734 69.5912 48.5433 67.5451 47.388 64.1583C41.22 46.0637 60.2324 48.6793 60.2324 48.6793C60.2324 48.6793 60.7758 43.206 55.8711 42.9495C55.8774 42.8128 55.8837 42.6751 55.89 42.5383C55.9026 42.5356 55.9125 42.5311 55.9251 42.5284Z" fill="#88C057"/>
<path d="M40.7939 66.92C40.7714 66.8948 40.7489 66.8696 40.7264 66.8444C40.622 66.7265 40.5186 66.6087 40.416 66.4899C34.6898 59.899 31.7304 55.006 31.9652 46.7127C30.1531 46.072 28.8529 44.349 28.8529 42.3182C28.8529 40.865 29.5169 39.5684 30.558 38.7127C30.0163 37.7761 29.7005 36.6927 29.7005 35.5329C29.7005 32.1101 32.4061 29.3262 35.7947 29.1858C35.6957 28.7728 35.6381 28.3436 35.6381 27.9C35.6381 25.5948 37.0562 23.6279 39.0654 22.8055C38.9322 22.3691 38.7631 21.9291 38.5408 21.4891C37.4323 19.2927 35.4816 17.9134 33.7009 18.2031C32.2334 18.4415 31.2067 19.6391 30.7649 21.2498C29.534 20.4211 28.1682 20.0989 26.9345 20.5335C24.2901 21.4648 23.456 25.2673 24.9703 28.789C24.9748 28.7998 24.9811 28.8088 24.9856 28.8196C22.1189 30.1891 21.3568 34.2606 23.1744 37.9335C23.4398 38.4689 23.7484 38.9611 24.0849 39.4155C20.9186 40.7246 20.0827 44.6999 22.0766 48.1739C22.7137 49.2843 23.5649 50.1984 24.5114 50.8886C24.0633 51.9602 24.1605 53.2784 24.8731 54.4949C25.8296 56.1289 27.6247 57.0989 29.3055 57.0872C32.2595 62.8881 35.8838 65.1384 41.3716 67.4671C41.4291 67.4914 41.4867 67.5157 41.5443 67.5391C41.2744 67.3681 41.0179 67.1719 40.7939 66.92Z" fill="#659C35"/>
<path d="M42.9456 40.118C42.9978 40.0028 43.0221 39.8823 43.0239 39.7635C43.6691 38.1403 44.4456 36.778 45.2536 35.6416C49.2882 34.803 52.3322 36.0636 52.3996 36.0924C52.5175 36.1446 52.6399 36.168 52.7587 36.168C53.1051 36.168 53.4353 35.9664 53.5838 35.6299C53.7835 35.1746 53.5757 34.6437 53.1213 34.444C52.9962 34.39 50.5137 33.3301 46.9443 33.5901C48.688 31.7716 50.2186 30.9465 50.4471 30.8314C51.7545 30.2051 53.6647 31.0149 54.2919 31.3802C54.4349 31.4648 54.5915 31.5044 54.7472 31.5044C55.0549 31.5044 55.3554 31.346 55.5228 31.0617C55.7747 30.6334 55.6335 30.0827 55.2043 29.8299C55.1017 29.7687 53.079 28.5999 51.0068 28.8347C51.184 28.105 51.5772 27.441 51.7779 27.1746C52.0793 26.7805 52.0037 26.2164 51.6087 25.9149C51.2155 25.6135 50.6496 25.6873 50.3481 26.0832C50.2915 26.1561 49.1109 27.7217 49.1136 29.524C47.8045 30.3257 44.4222 32.756 42.0557 37.64C41.928 37.9027 41.8047 38.1853 41.6823 38.4687C39.2277 36.7906 39.6317 33.8051 39.6542 33.6603C39.7307 33.1708 39.3969 32.711 38.9065 32.6327C38.417 32.5544 37.9545 32.8892 37.8763 33.3795C37.6153 35.0126 37.9896 38.3778 41.021 40.1855C40.3516 42.1542 39.8441 44.5044 39.6875 47.2785C39.6695 47.3658 39.6659 47.4503 39.6731 47.5367C39.5795 49.4811 39.6695 51.6379 39.9826 53.9999C38.8417 53.3718 38.3199 52.4531 38.2866 52.391C38.0517 51.9546 37.51 51.7882 37.0728 52.0185C36.6337 52.2498 36.4636 52.7941 36.6957 53.2341C36.7434 53.325 37.8205 55.3162 40.3102 56.0855C40.9589 59.6451 42.1151 63.6419 43.9849 68.1273C44.6012 68.0868 45.2014 67.924 45.7323 67.6595C45.7296 67.6523 45.7305 67.6441 45.7278 67.6361C43.7653 62.9671 42.5812 58.8542 41.9514 55.22C41.9478 55.1984 41.946 55.1777 41.9415 55.157C41.4736 52.4306 41.3215 49.9805 41.4097 47.786C42.6694 45.6382 46.372 45.5518 46.4098 45.5509C46.9065 45.5428 47.3033 45.1352 47.2961 44.6385C47.2889 44.1454 46.8885 43.7513 46.3972 43.7513C46.3936 43.7513 46.39 43.7513 46.3864 43.7513C46.2397 43.7531 43.6745 43.8089 41.6391 45.0848C41.8875 43.3032 42.3005 41.725 42.8125 40.3232C42.8655 40.2611 42.9114 40.1936 42.9456 40.118Z" fill="#659C35"/>
</g>
<defs>
<clipPath id="clip0">
<rect width="50.3218" height="50.0012" fill="white" transform="translate(18 18.1445)"/>
</clipPath>
</defs>
</svg>
