<svg width="82" height="82" viewBox="0 0 82 82" fill="none" xmlns="http://www.w3.org/2000/svg">
<ellipse cx="40.5205" cy="40.7349" rx="40.5" ry="40.6627" fill="#D75A4A" fill-opacity="0.1"/>
<g clip-path="url(#clip0)">
<path d="M18.9769 56.9387C18.9769 56.9387 22.1725 63.8849 30.4236 66.6139C32.2572 67.2201 34.1883 67.3676 36.1113 67.5392C44.006 68.2448 62.9229 66.5647 67.2908 48.4939C68.6628 42.8173 68.0535 36.8395 65.8565 31.4288C62.693 23.6374 55.6042 13.6571 40.9348 20.3414C32.5764 24.1503 33.2107 30.658 35.0002 35.1825C37.1651 40.6584 32.749 46.3039 26.9108 45.5362C19.6955 44.5867 16.1888 48.9225 18.9769 56.9387Z" fill="#994530"/>
<path d="M22.7272 55.2223C23.1307 56.0101 25.7964 60.7945 31.8715 62.8039C33.2114 63.2465 34.745 63.383 36.3699 63.5265L36.6529 63.5516C37.4739 63.6248 38.3571 63.662 39.2795 63.662C57.5259 63.662 62.217 52.403 63.3872 47.5624C64.5254 42.8522 64.0958 37.8239 62.1477 33.0214C59.2191 25.8092 55.0107 22.1509 49.6412 22.1509C47.4231 22.1509 44.9411 22.7681 42.2654 23.9876C39.2624 25.3565 35.565 27.9229 38.1203 34.3854C39.409 37.6473 39.0356 41.1561 37.0935 44.0115C34.9156 47.2141 31.0696 48.9304 27.1624 48.4175C26.6676 48.3523 26.1929 48.3181 25.7533 48.3181C24.6723 48.3181 23.2421 48.5169 22.5687 49.4653C21.7989 50.5492 21.8571 52.6419 22.7272 55.2223Z" fill="#D75A4A"/>
<path d="M39.2814 64.6657C38.33 64.6657 37.4166 64.6275 36.5655 64.5513L36.2815 64.5262C34.6014 64.3786 33.0126 64.2381 31.5583 63.7564C25.159 61.6407 22.3367 56.6575 21.8349 55.68L21.7767 55.5425C20.7891 52.6148 20.7801 50.2502 21.7506 48.8832C22.6659 47.5935 24.6512 47.0696 27.2948 47.4219C30.8447 47.8896 34.2792 46.3641 36.2634 43.4464C38.0158 40.8721 38.353 37.7025 37.1878 34.7538C33.9871 26.6593 39.9047 23.9605 41.8498 23.0733C51.5651 18.6502 58.7212 21.9141 63.079 32.6431C65.1074 37.6423 65.552 42.8824 64.3637 47.7973C63.1373 52.8697 58.2394 64.6657 39.2814 64.6657ZM23.6535 54.8279C24.056 55.5886 26.6003 60.0017 32.1876 61.8504C33.4211 62.2579 34.8965 62.3884 36.4591 62.5259L36.7442 62.551C37.5351 62.6212 38.3892 62.6574 39.2804 62.6574C56.8132 62.6574 61.2986 51.9353 62.4126 47.3256C63.5006 42.8222 63.0871 38.0056 61.2183 33.3979C58.4572 26.6011 54.562 23.1546 49.6411 23.1546C47.5666 23.1546 45.2251 23.7417 42.6818 24.9009C39.6508 26.282 36.8506 28.4458 39.0536 34.0171C40.4667 37.5931 40.0552 41.4421 37.9235 44.5766C35.5107 48.1235 31.3365 49.9822 27.0318 49.4122C25.2323 49.1753 23.8232 49.4312 23.3866 50.0465C22.95 50.6617 22.7934 52.2384 23.6535 54.8279Z" fill="#C64940"/>
<path d="M50.5947 34.7468C52.8119 34.7468 54.6093 32.9494 54.6093 30.7321C54.6093 28.5149 52.8119 26.7175 50.5947 26.7175C48.3775 26.7175 46.5801 28.5149 46.5801 30.7321C46.5801 32.9494 48.3775 34.7468 50.5947 34.7468Z" fill="#E6E6E6"/>
<path d="M50.5944 35.7504C47.8274 35.7504 45.5762 33.4992 45.5762 30.7321C45.5762 27.9651 47.8274 25.7139 50.5944 25.7139C53.3615 25.7139 55.6127 27.9651 55.6127 30.7321C55.6127 33.4992 53.3615 35.7504 50.5944 35.7504ZM50.5944 27.7212C48.9344 27.7212 47.5835 29.0721 47.5835 30.7321C47.5835 32.3922 48.9344 33.7431 50.5944 33.7431C52.2545 33.7431 53.6054 32.3922 53.6054 30.7321C53.6054 29.0721 52.2545 27.7212 50.5944 27.7212Z" fill="#7A3726"/>
<path d="M43.7306 63.7575L41.7825 63.2767C42.2191 61.5093 40.7156 60.049 38.3239 58.4C35.4384 56.4087 33.4893 53.2643 32.9774 49.7736C32.7907 48.5029 32.5509 47.4802 32.5479 47.4702L34.4769 46.9202C34.4869 46.9483 35.5709 50.0355 38.4694 51.2499C40.5711 52.1301 43.1535 51.8501 46.1453 50.4149C57.7656 44.8406 63.3098 47.7592 63.5407 47.8857L62.5701 49.6441C62.53 49.623 57.582 47.155 47.0135 52.2235C43.4706 53.9237 40.3272 54.2147 37.6675 53.0896C36.8636 52.7494 36.172 52.3078 35.5819 51.82C36.3537 53.8012 37.6996 55.5285 39.463 56.7449C41.2535 57.9834 44.5887 60.2828 43.7306 63.7575Z" fill="#C64940"/>
<path d="M45.1931 45.5931C39.8035 45.5931 37.5603 41.8856 37.5322 41.8395L39.2655 40.8258L38.3994 41.3326L39.2615 40.8198C39.3699 40.9994 41.9854 45.1706 49.0351 42.9324C50.5807 42.1355 61.1171 36.9085 64.7112 40.6351L63.2669 42.0292C61.2807 39.9697 54.0042 42.6073 49.8862 44.7531L49.7316 44.8173C48.0214 45.3703 46.5129 45.5931 45.1931 45.5931Z" fill="#C64940"/>
</g>
<defs>
<clipPath id="clip0">
<rect width="50.0001" height="49.5223" fill="white" transform="translate(18.0205 18.1445)"/>
</clipPath>
</defs>
</svg>
