<svg width="81" height="82" viewBox="0 0 81 82" fill="none" xmlns="http://www.w3.org/2000/svg">
<ellipse cx="40.5" cy="40.7349" rx="40.5" ry="40.6627" fill="#AF875C" fill-opacity="0.1"/>
<g clip-path="url(#clip0)">
<path d="M61.5238 36.3356L53.553 37.5061C48.1503 38.2996 36.0609 38.2851 30.6675 37.4624L23.2727 36.3346C22.1011 36.3346 21.1514 35.6972 21.1514 34.911V34.7037C21.1514 32.1409 24.2484 29.5989 28.0682 29.5989H56.7303C60.5501 29.5989 63.6471 32.1409 63.6471 34.7037V34.911C63.6461 35.6983 62.6964 36.3356 61.5238 36.3356Z" fill="#96683B"/>
<path d="M42.4848 18.1445C32.7781 19.3161 27.3848 29.5998 27.3848 29.5998H42.4848H57.5849C57.5849 29.5998 52.1916 19.3161 42.4848 18.1445Z" fill="#E6E6E6"/>
<path d="M67.5522 64.4042L64.3176 61.1696C64.3187 60.9738 64.3301 60.7791 64.3083 60.5802L61.3695 36.3586L53.5528 37.5073C48.1501 38.3008 36.0607 38.2862 30.6674 37.4636L24.0181 36.4503L21.6625 60.6323C21.6417 60.8228 21.6532 61.0093 21.6532 61.1967L18.4467 64.4031C17.422 65.4279 18.2916 67.1659 19.7256 66.9618L25.3876 66.1527C25.4855 66.1808 25.5761 66.2235 25.6771 66.2464C36.697 68.6957 48.1137 68.7592 59.1617 66.4328L60.2385 66.2058C60.3208 66.1881 60.3937 66.1537 60.4739 66.1329L66.2744 66.9618C67.7073 67.167 68.5769 65.4278 67.5522 64.4042Z" fill="#AF875C"/>
<path d="M48.0735 26.4769C48.7257 26.4769 49.2544 25.9481 49.2544 25.2959C49.2544 24.6437 48.7257 24.115 48.0735 24.115C47.4213 24.115 46.8926 24.6437 46.8926 25.2959C46.8926 25.9481 47.4213 26.4769 48.0735 26.4769Z" fill="white"/>
<path d="M40.9905 26.4769C41.6427 26.4769 42.1714 25.9481 42.1714 25.2959C42.1714 24.6437 41.6427 24.115 40.9905 24.115C40.3383 24.115 39.8096 24.6437 39.8096 25.2959C39.8096 25.9481 40.3383 26.4769 40.9905 26.4769Z" fill="white"/>
<path d="M44.5325 24.116C45.1847 24.116 45.7134 23.5873 45.7134 22.9351C45.7134 22.2829 45.1847 21.7542 44.5325 21.7542C43.8803 21.7542 43.3516 22.2829 43.3516 22.9351C43.3516 23.5873 43.8803 24.116 44.5325 24.116Z" fill="white"/>
<path d="M41.7656 58.1579H39.1715C36.0994 58.1579 33.6084 55.6669 33.6084 52.5948V50.0007H36.2025C39.2746 50.0007 41.7656 52.4917 41.7656 55.5638V58.1579Z" fill="#F9D70B"/>
<path d="M45.3916 58.1579H47.9857C51.0578 58.1579 53.5488 55.6669 53.5488 52.5948V50.0007H50.9547C47.8826 50.0007 45.3916 52.4917 45.3916 55.5638V58.1579Z" fill="#F9D70B"/>
<path d="M43.5716 54.0799L45.4065 52.245C47.5788 50.0727 47.5788 46.5507 45.4065 44.3784L43.5716 42.5435L41.7367 44.3784C39.5643 46.5507 39.5643 50.0727 41.7367 52.245L43.5716 54.0799Z" fill="#F9D70B"/>
</g>
<defs>
<clipPath id="clip0">
<rect width="49.9989" height="49.9872" fill="white" transform="translate(18 18.1445)"/>
</clipPath>
</defs>
</svg>
