<svg width="368" height="379" viewBox="0 0 368 379" fill="none" xmlns="http://www.w3.org/2000/svg">
<circle cx="183.53" cy="194.824" r="183.03" stroke="#EDEDED" stroke-dasharray="8 8"/>
<circle cx="175.06" cy="11.2941" r="11.2941" fill="#E4E4E4"/>
<circle cx="11.2941" cy="259.765" r="11.2941" fill="#E4E4E4"/>
<circle cx="355.767" cy="259.765" r="11.2941" fill="#E4E4E4"/>
<path d="M199.865 287.842C199.865 272.16 186.932 259.447 170.976 259.447C155.02 259.447 142.086 272.16 142.086 287.842C142.086 303.524 155.02 316.237 170.976 316.237C186.932 316.237 199.865 303.524 199.865 287.842Z" fill="#F7C92B"/>
<path d="M170.977 259.447C168.056 259.447 165.237 259.877 162.58 260.67C174.439 264.205 183.073 275.029 183.073 287.842C183.073 300.653 174.439 311.479 162.58 315.014C165.237 315.807 168.056 316.237 170.977 316.237C186.933 316.237 199.866 303.524 199.866 287.842C199.866 272.16 186.933 259.447 170.977 259.447Z" fill="#F2B51D"/>
<path d="M174.354 122.117C165.075 123.949 156.044 118.043 154.179 108.923C152.314 99.8044 158.325 90.9267 167.602 89.0945C176.88 87.2623 185.912 93.1684 187.777 102.289C189.64 111.407 183.631 120.285 174.354 122.117Z" fill="#F7C92B"/>
<path d="M187.776 102.289C185.911 93.1684 176.878 87.2623 167.601 89.0945C166.737 89.265 165.903 89.4984 165.1 89.7837C170.515 91.7326 174.804 96.3233 176.024 102.289C177.715 110.559 172.928 118.63 165.101 121.428C167.966 122.458 171.144 122.751 174.353 122.117C183.63 120.285 189.639 111.407 187.776 102.289Z" fill="#F2B51D"/>
<path d="M242.531 283.088H99.4222C86.6164 283.088 76.2363 272.885 76.2363 260.301C76.2363 253.333 79.4448 246.74 84.9623 242.366L89.5596 238.72C100.194 230.291 106.377 217.584 106.377 204.156V180.208C106.377 144.873 135.519 116.23 171.469 116.23C207.418 116.23 236.562 144.873 236.562 180.208V204.599C236.562 217.773 242.514 230.268 252.809 238.705L257.286 242.373C262.628 246.751 265.717 253.235 265.717 260.071V260.301C265.717 272.885 255.336 283.088 242.531 283.088Z" fill="#F7E249"/>
<path d="M257.284 242.375L252.807 238.707C242.511 230.268 236.559 217.774 236.559 204.599V180.207C236.559 144.875 207.415 116.23 171.467 116.23C165.097 116.23 158.944 117.134 153.127 118.811C180.146 126.593 199.879 151.135 199.879 180.207V204.599C199.879 217.774 205.831 230.268 216.126 238.707L220.605 242.375C225.946 246.753 229.036 253.237 229.036 260.073V260.303C229.036 272.887 218.656 283.089 205.85 283.089H242.53C255.334 283.089 265.714 272.887 265.714 260.303V260.073C265.714 253.237 262.626 246.753 257.284 242.375Z" fill="#F7C92B"/>
<path d="M288.002 128.321C288.002 97.9956 262.991 73.4116 232.137 73.4116C201.283 73.4116 176.27 97.9956 176.27 128.321C176.27 158.646 201.283 183.23 232.137 183.23C262.991 183.23 288.002 158.646 288.002 128.321Z" fill="#FC476E"/>
<path d="M247.127 75.415C261.374 85.3653 270.669 101.718 270.669 120.205C270.669 150.53 245.657 175.114 214.803 175.114C209.609 175.114 204.583 174.416 199.812 173.112C208.936 179.485 220.091 183.231 232.136 183.231C262.989 183.231 288.002 158.647 288.002 128.321C288.002 103.1 270.701 81.8547 247.127 75.415Z" fill="#CC2B5A"/>
<path d="M224.714 129.049C224.714 126.743 225.127 124.936 225.954 123.629C226.794 122.323 228.18 121.669 230.114 121.669C232.047 121.669 233.427 122.323 234.254 123.629C235.094 124.936 235.514 126.743 235.514 129.049C235.514 131.369 235.094 133.189 234.254 134.509C233.427 135.829 232.047 136.489 230.114 136.489C228.18 136.489 226.794 135.829 225.954 134.509C225.127 133.189 224.714 131.369 224.714 129.049ZM232.754 129.049C232.754 128.063 232.687 127.236 232.554 126.569C232.434 125.889 232.18 125.336 231.794 124.909C231.42 124.483 230.86 124.269 230.114 124.269C229.367 124.269 228.8 124.483 228.414 124.909C228.04 125.336 227.787 125.889 227.654 126.569C227.534 127.236 227.474 128.063 227.474 129.049C227.474 130.063 227.534 130.916 227.654 131.609C227.774 132.289 228.027 132.843 228.414 133.269C228.8 133.683 229.367 133.889 230.114 133.889C230.86 133.889 231.427 133.683 231.814 133.269C232.2 132.843 232.454 132.289 232.574 131.609C232.694 130.916 232.754 130.063 232.754 129.049Z" fill="white"/>
</svg>
