<svg width="81" height="82" viewBox="0 0 81 82" fill="none" xmlns="http://www.w3.org/2000/svg">
<ellipse cx="40.5" cy="40.7349" rx="40.5" ry="40.6627" fill="#698B9E" fill-opacity="0.1"/>
<g clip-path="url(#clip0)">
<path d="M67.2641 33.499C67.8946 32.8191 67.6178 31.6504 66.7698 31.2725C64.7948 30.3938 65.6044 27.4731 63.9534 27.628C62.0598 27.8048 60.6692 26.4153 60.8471 24.5216C61.0239 22.628 59.6344 21.2374 57.7408 21.4153C55.8471 21.5922 57.6924 18.6484 54.6344 18.309C54.6344 18.309 52.498 17.4841 52.2948 19.5293L52.263 27.5016H39.953C27.8286 27.5016 18 37.3303 18 49.4546V68.1431H36.5369C48.7447 68.1431 58.6415 58.2464 58.6415 46.0386V33.7813L66.5984 33.8549C66.8796 33.811 67.096 33.6791 67.2641 33.499Z" fill="#698B9E"/>
<path d="M41.9155 61.969H39.7187C39.7187 53.4892 32.8206 46.5911 24.3408 46.5911V44.3943C34.0311 44.3943 41.9155 52.2776 41.9155 61.969Z" fill="#5D7989"/>
<path d="M45.4917 58.3938H43.2948C43.2948 49.914 36.3968 43.0159 27.917 43.0159V40.8191C37.6072 40.8191 45.4917 48.7035 45.4917 58.3938Z" fill="#5D7989"/>
<path d="M48.9057 54.9775H46.7089C46.7089 46.4977 39.8108 39.5997 31.3311 39.5997V37.4028C41.0213 37.4028 48.9057 45.2873 48.9057 54.9775Z" fill="#5D7989"/>
<path d="M52.4819 51.4033H50.2851C50.2851 42.9235 43.387 36.0255 34.9072 36.0255V33.8286C44.5975 33.8286 52.4819 41.712 52.4819 51.4033Z" fill="#5D7989"/>
<path d="M34.0873 28.3179C33.6546 26.143 32.7572 23.7781 31.0447 21.4143C31.0447 21.4143 22.0113 25.8937 25.7163 32.7621C28.1163 30.7135 30.9612 29.1845 34.0873 28.3179Z" fill="#546A79"/>
<path d="M58.2475 50.1414C57.5829 53.6794 56.0737 56.912 53.9395 59.6394C57.0842 59.9975 61.6987 59.6888 66.2835 56.3661C66.2835 56.3661 63.2079 50.1633 58.2475 50.1414Z" fill="#546A79"/>
<path d="M24.3414 57.0096C25.5546 57.0096 26.5382 56.0261 26.5382 54.8128C26.5382 53.5995 25.5546 52.616 24.3414 52.616C23.1281 52.616 22.1445 53.5995 22.1445 54.8128C22.1445 56.0261 23.1281 57.0096 24.3414 57.0096Z" fill="#38454F"/>
</g>
<defs>
<clipPath id="clip0">
<rect width="49.6083" height="49.9986" fill="white" transform="translate(18 18.1445)"/>
</clipPath>
</defs>
</svg>
