<svg width="28" height="28" viewBox="0 0 28 28" fill="none" xmlns="http://www.w3.org/2000/svg">
<path d="M2.58154 27.1248C1.13779 27.1248 0.481544 26.0748 1.13779 24.8061L12.819 1.8373C13.4753 0.568555 14.5253 0.568555 15.1815 1.8373L26.8628 24.8061C27.519 26.0748 26.8628 27.1248 25.419 27.1248H2.58154Z" fill="#FFCE31"/>
<path d="M12.1627 10.3249L13.3877 18.4186C13.519 19.2061 14.5252 19.2061 14.6565 18.4186L15.8377 10.3249C16.0565 7.1749 11.944 7.1749 12.1627 10.3249" fill="#231F20"/>
<path d="M13.9996 23.5373C15.0144 23.5373 15.8371 22.7146 15.8371 21.6998C15.8371 20.685 15.0144 19.8623 13.9996 19.8623C12.9848 19.8623 12.1621 20.685 12.1621 21.6998C12.1621 22.7146 12.9848 23.5373 13.9996 23.5373Z" fill="#231F20"/>
</svg>
